<?xml version="1.0" encoding="utf-8"?>
<!-- Generator: Adobe Illustrator 22.1.0, SVG Export Plug-In . SVG Version: 6.00 Build 0)  -->
<svg xmlns="http://www.w3.org/2000/svg" xmlns:xlink="http://www.w3.org/1999/xlink" version="1.1" id="Layer_1" x="0px" y="0px" viewBox="0 0 256 256" style="enable-background:new 0 0 256 256;" xml:space="preserve" width="512" height="512">
<style type="text/css">
	.st0{fill:#FF4397;}
	.st1{fill:#E12579;}
	.st2{fill:#FF61B5;}
	.st3{fill:#690589;}
	.st4{fill:#FCC24C;}
	.st5{fill:#7BAC51;}
	.st6{fill:#5D8E33;}
	.st7{fill:#99CA6F;}
	.st8{fill:#E18152;}
	.st9{fill:#F4EFED;}
	.st10{fill:#FF9F70;}
	.st11{fill:#FFBD8E;}
	.st12{fill:#D6D1CF;}
	.st13{fill:#FFFFFF;}
	.st14{fill:#FCE06A;}
	.st15{fill:#DEA42E;}
</style>
<g>
	<g>
		<path class="st5" d="M208.5,252H4V47.5C4,23.476,23.476,4,47.5,4H252v204.5C252,232.524,232.524,252,208.5,252z"/>
	</g>
	<g>
		<path class="st9" d="M63.653,216.156h110.363c23.274,0,42.141-18.867,42.141-42.141V63.653L63.653,216.156z"/>
	</g>
	<g>
		<path class="st9" d="M186.535,39.844H81.984c-23.274,0-42.141,18.867-42.141,42.141v104.55L186.535,39.844z"/>
	</g>
	<g>
		<path class="st7" d="M65.516,4H46.141C22.867,4,4,22.867,4,46.141V252h19.375V46.141C23.375,22.867,42.242,4,65.516,4z"/>
	</g>
	<g>
		<path class="st6" d="M232.625,4v205.859c0,23.274-18.867,42.141-42.141,42.141h19.375C233.133,252,252,233.133,252,209.859V4    H232.625z"/>
	</g>
	<g>
		<circle class="st0" cx="31.125" cy="224.875" r="17.438"/>
	</g>
	<g>
		<circle class="st4" cx="224.875" cy="31.125" r="17.438"/>
	</g>
	<g>
		<path class="st12" d="M206.469,73.34v100.675c0,23.274-18.867,42.141-42.141,42.141h9.688c23.274,0,42.141-18.867,42.141-42.141    V63.653L206.469,73.34z"/>
	</g>
	<g>
		<path class="st13" d="M49.531,81.984c0-23.274,18.867-42.141,42.141-42.141h-9.688c-23.274,0-42.141,18.867-42.141,42.141v104.55    l9.688-9.688V81.984z"/>
	</g>
	<g>
		<path class="st3" d="M208.5,254H4c-1.104,0-2-0.896-2-2V47.5C2,22.411,22.411,2,47.5,2H252c1.104,0,2,0.896,2,2v204.5    C254,233.589,233.589,254,208.5,254z M6,250h202.5c22.883,0,41.5-18.617,41.5-41.5V6H47.5C24.617,6,6,24.617,6,47.5V250z"/>
	</g>
	<g>
		<path class="st3" d="M11.75,48.141c-1.104,0-2-0.896-2-2c0-8.643,3.095-17.026,8.714-23.605c0.717-0.84,1.979-0.939,2.82-0.222    c0.84,0.718,0.939,1.98,0.222,2.82c-5.002,5.856-7.756,13.317-7.756,21.008C13.75,47.245,12.854,48.141,11.75,48.141z"/>
	</g>
	<g>
		<path class="st3" d="M174.016,218.156H63.653c-0.809,0-1.538-0.487-1.848-1.235c-0.31-0.747-0.139-1.607,0.434-2.179    L214.742,62.239c0.572-0.573,1.431-0.744,2.18-0.434c0.747,0.31,1.234,1.039,1.234,1.848v110.363    C218.156,198.355,198.354,218.156,174.016,218.156z M68.481,214.156h105.534c22.134,0,40.141-18.007,40.141-40.141V68.481    L68.481,214.156z"/>
	</g>
	<g>
		<path class="st3" d="M39.843,188.535c-0.258,0-0.518-0.05-0.765-0.152c-0.748-0.31-1.235-1.039-1.235-1.848V81.984    c0-24.339,19.801-44.141,44.141-44.141h104.551c0.809,0,1.538,0.487,1.848,1.235c0.31,0.747,0.139,1.607-0.434,2.179    L41.258,187.949C40.875,188.332,40.364,188.535,39.843,188.535z M81.984,41.844c-22.134,0-40.141,18.007-40.141,40.141v99.722    L181.707,41.844H81.984z"/>
	</g>
	<g>
		<path class="st3" d="M31.125,244.313c-10.718,0-19.438-8.72-19.438-19.438s8.72-19.438,19.438-19.438s19.438,8.72,19.438,19.438    S41.843,244.313,31.125,244.313z M31.125,209.438c-8.512,0-15.438,6.925-15.438,15.438s6.925,15.438,15.438,15.438    s15.438-6.925,15.438-15.438S39.637,209.438,31.125,209.438z"/>
	</g>
	<g>
		<path class="st3" d="M224.875,50.563c-10.718,0-19.438-8.72-19.438-19.438s8.72-19.438,19.438-19.438s19.438,8.72,19.438,19.438    S235.593,50.563,224.875,50.563z M224.875,15.688c-8.513,0-15.438,6.925-15.438,15.438s6.925,15.438,15.438,15.438    s15.438-6.925,15.438-15.438S233.388,15.688,224.875,15.688z"/>
	</g>
</g>
</svg>
